<?xml version="1.0" standalone="no"?>
<!DOCTYPE svg PUBLIC "-//W3C//DTD SVG 20010904//EN"
 "http://www.w3.org/TR/2001/REC-SVG-20010904/DTD/svg10.dtd">
<svg version="1.0" xmlns="http://www.w3.org/2000/svg"
 width="96.000000pt" height="96.000000pt" viewBox="0 0 96.000000 96.000000"
 preserveAspectRatio="xMidYMid meet">
<metadata>
Created by potrace 1.14, written by Peter Selinger 2001-2017
</metadata>
<g transform="translate(0.000000,96.000000) scale(0.100000,-0.100000)"
fill="#000000" stroke="none">
<path d="M204 866 c-43 -19 -78 -54 -104 -104 -42 -80 -6 -200 73 -247 l27
-16 0 -210 0 -209 40 0 40 0 0 119 c0 127 3 134 53 146 l27 7 0 -136 0 -136
40 0 39 0 3 134 3 134 35 -12 35 -11 3 -123 3 -122 39 0 40 0 0 120 0 120 40
0 40 0 0 -120 0 -120 40 0 40 0 0 205 c0 204 0 206 23 214 12 5 33 19 46 31
41 39 51 81 51 205 l0 116 -45 -36 c-24 -20 -48 -34 -54 -31 -5 3 -34 9 -64
12 -41 5 -64 2 -88 -10 -31 -15 -32 -15 -71 16 -40 31 -40 31 -38 7 1 -13 2
-47 1 -75 l-1 -52 -92 -4 c-95 -4 -132 -16 -174 -57 -12 -11 -24 -26 -27 -33
-3 -9 -12 -6 -30 11 -63 57 -37 168 44 192 37 11 39 15 39 51 0 33 -3 38 -22
38 -13 -1 -37 -7 -54 -14z m556 -161 c32 -17 46 -51 36 -90 -18 -73 -175 -70
-191 4 -3 17 -4 40 0 51 14 45 99 64 155 35z m-225 -124 c12 -40 75 -87 125
-95 10 -2 16 -17 18 -44 l3 -42 -73 0 c-47 0 -84 6 -103 16 -44 23 -132 29
-182 11 l-43 -15 0 49 c0 106 40 139 167 139 71 0 82 -2 88 -19z"/>
</g>
</svg>
